<?xml version="1.0" encoding="UTF-8" standalone="no"?>
<svg
   xmlns:dc="http://purl.org/dc/elements/1.1/"
   xmlns:cc="http://creativecommons.org/ns#"
   xmlns:rdf="http://www.w3.org/1999/02/22-rdf-syntax-ns#"
   xmlns:svg="http://www.w3.org/2000/svg"
   xmlns="http://www.w3.org/2000/svg"
   xmlns:sodipodi="http://sodipodi.sourceforge.net/DTD/sodipodi-0.dtd"
   xmlns:inkscape="http://www.inkscape.org/namespaces/inkscape"
   width="256"
   height="255.99998"
   viewBox="0 0 67.733331 67.733327"
   version="1.1"
   id="svg8"
   inkscape:version="1.0.1 (c497b03c, 2020-09-10)"
   sodipodi:docname="ks-icon.svg">
  <defs
     id="defs2" />
  <sodipodi:namedview
     id="base"
     pagecolor="#ffffff"
     bordercolor="#666666"
     borderopacity="1.0"
     inkscape:pageopacity="0.0"
     inkscape:pageshadow="2"
     inkscape:zoom="1.795452"
     inkscape:cx="215.46022"
     inkscape:cy="179.37054"
     inkscape:document-units="mm"
     inkscape:current-layer="text835"
     inkscape:document-rotation="0"
     showgrid="false"
     units="px"
     inkscape:window-width="1792"
     inkscape:window-height="1075"
     inkscape:window-x="-1"
     inkscape:window-y="23"
     inkscape:window-maximized="0"
     fit-margin-top="0"
     fit-margin-left="0"
     fit-margin-right="0"
     fit-margin-bottom="0" />
  <metadata
     id="metadata5">
    <rdf:RDF>
      <cc:Work
         rdf:about="">
        <dc:format>image/svg+xml</dc:format>
        <dc:type
           rdf:resource="http://purl.org/dc/dcmitype/StillImage" />
        <dc:title></dc:title>
      </cc:Work>
    </rdf:RDF>
  </metadata>
  <g
     inkscape:label="Layer 1"
     inkscape:groupmode="layer"
     id="layer1"
     style="display:inline"
     transform="translate(-1.6418869,-9.4643911)">
    <g
       aria-label="KS"
       id="text835"
       style="font-weight:bold;font-size:50.8px;line-height:1.25;font-family:'Comic Sans MS';-inkscape-font-specification:'Comic Sans MS, Bold';stroke-width:0.264583"
       transform="matrix(1.0447945,0,0,1.5756301,-1.9029833,-18.032764)">
      <g
         id="g891"
         transform="matrix(1.0367283,0,0,1.0561019,0.31406119,4.1588015)">
        <path
           d="m 10.088703,39.574096 -0.02481,10.442773 q 0,1.091407 -0.6201172,2.00918 -0.8681641,1.265039 -2.5300781,1.265039 -1.9595703,0 -3.0757812,-1.5875 -0.8681641,-1.240234 -0.8681641,-2.654101 0,-5.506641 0.3472657,-16.544727 0.3472656,-11.038086 0.3472656,-16.544726 0,-1.389063 0.9921875,-2.38125 0.9921875,-0.992188 2.4804687,-0.992188 1.4882812,0 2.455664,0.992188 0.9921871,0.992187 0.9921871,2.38125 0,2.232422 -0.223242,6.027539 -0.272851,4.415234 -0.322461,6.027539 1.736328,-1.637109 12.873633,-13.791406 1.141016,-1.240235 2.629297,-1.240235 1.413867,0 2.455664,0.992188 1.066601,0.992187 1.066601,2.406055 0,1.53789 -5.903515,7.987109 -4.365625,4.737695 -9.202539,9.351367 2.703711,2.554883 5.432226,5.109765 3.175,2.926954 5.705078,4.81211 1.265039,0.917773 2.728516,1.389062 2.654101,0.84336 2.654101,3.249414 0,1.066602 -0.669726,2.058789 -0.917774,1.339453 -2.554883,1.339453 -3.54707,0 -9.202539,-4.638476 -1.686719,-1.389063 -7.962304,-7.466211 z"
           style="font-size:50.8px;fill:#00ad43;fill-opacity:1;stroke-width:0.264583"
           id="path854" />
        <path
           d="m 45.509795,53.152359 q -6.30039,0 -9.921875,-2.993889 -3.050976,-2.490493 -3.050976,-5.749328 0,-1.669161 0.942578,-2.75544 0.942578,-1.112773 2.604492,-1.112773 2.232422,0 3.274219,2.437504 1.413867,3.258835 6.399609,3.258835 4.266406,0 8.259961,-1.987094 4.142383,-2.040084 4.142383,-4.477589 0,-3.338319 -2.579688,-4.398103 -1.835547,-0.768344 -7.366992,-0.900817 -4.291211,-0.10598 -7.689453,-1.722149 -4.588867,-2.199052 -4.514453,-6.305715 0.07441,-5.166448 5.159375,-9.458573 5.084961,-4.318621 11.211719,-4.318621 2.430859,0 6.002734,1.192257 4.440039,1.483698 4.440039,3.417805 0,1.377719 -0.892969,2.437502 -0.992187,1.192257 -2.554883,1.192257 -1.16582,0 -3.497461,-0.529892 -2.306835,-0.52989 -3.49746,-0.52989 -3.199805,0.02648 -6.077149,1.642664 -2.976562,1.642666 -2.976562,3.576771 0,1.006796 0.892968,1.66916 0.917774,0.635871 2.728516,0.900817 3.175,0.185462 6.325195,0.370924 5.506641,0.450409 8.706445,3.311826 3.522266,3.179353 3.522266,8.796207 0,6.835608 -7.292578,10.35939 -5.55625,2.675954 -12.7,2.675954 z"
           style="font-size:50.8px;fill:#00ad43;fill-opacity:1;stroke-width:0.273448"
           id="path856" />
      </g>
    </g>
  </g>
</svg>
