<?xml version="1.0" standalone="no"?>
<!DOCTYPE svg PUBLIC "-//W3C//DTD SVG 20010904//EN"
 "http://www.w3.org/TR/2001/REC-SVG-20010904/DTD/svg10.dtd">
<svg version="1.0" xmlns="http://www.w3.org/2000/svg"
 width="700.000000pt" height="700.000000pt" viewBox="0 0 700.000000 700.000000"
 preserveAspectRatio="xMidYMid meet">
<metadata>
Created by potrace 1.11, written by Peter Selinger 2001-2013
</metadata>
<g transform="translate(0.000000,700.000000) scale(0.100000,-0.100000)"
fill="#000000" stroke="none">
<path d="M390 6991 c-147 -47 -259 -204 -300 -421 -7 -33 -13 -285 -15 -620
-2 -311 -7 -709 -10 -885 -9 -579 -16 -997 -20 -1185 -2 -102 -7 -331 -10
-510 -3 -179 -8 -410 -10 -515 -19 -922 -26 -2228 -12 -2305 34 -186 107 -354
197 -447 121 -125 308 -136 420 -24 80 80 141 226 157 376 5 39 8 481 8 982 0
502 2 913 5 913 3 -1 48 -65 100 -143 128 -191 493 -724 598 -872 216 -305
344 -458 567 -681 289 -287 552 -418 732 -364 69 21 146 98 193 193 64 130 83
217 83 382 2 287 -81 440 -303 563 -171 95 -300 222 -547 542 -58 74 -115 149
-128 165 -13 17 -64 87 -114 155 -50 69 -94 130 -99 135 -4 6 -124 179 -267
385 -143 206 -279 402 -302 435 -23 33 -51 74 -62 91 l-19 32 126 189 c680
1012 1269 2003 1467 2467 78 184 98 265 91 376 -10 179 -67 320 -171 425 -79
81 -120 99 -215 100 -159 0 -201 -44 -465 -485 -110 -184 -205 -344 -211 -355
-57 -105 -897 -1484 -1005 -1649 l-58 -89 4 119 c2 65 7 209 10 319 4 110 8
236 10 280 2 44 6 161 10 260 4 99 9 221 11 270 2 50 6 281 9 515 5 400 4 430
-15 505 -39 160 -138 308 -236 355 -48 24 -160 35 -204 21z"/>
<path d="M5370 6974 c-118 -17 -168 -29 -275 -69 -339 -127 -666 -419 -952
-850 -203 -305 -351 -672 -403 -995 -7 -41 -14 -83 -16 -93 -19 -102 -26 -487
-12 -597 27 -200 104 -398 216 -560 49 -70 215 -239 263 -267 16 -10 29 -21
29 -25 0 -4 4 -8 9 -8 5 0 33 -16 62 -36 65 -45 232 -125 314 -153 176 -58
276 -75 490 -86 476 -23 720 -80 855 -202 151 -136 224 -358 224 -683 0 -130
-7 -181 -40 -272 -46 -128 -117 -237 -230 -354 -62 -65 -169 -158 -220 -192
-10 -7 -53 -35 -94 -63 -145 -98 -396 -206 -521 -224 -24 -4 -46 -8 -49 -10
-13 -8 -124 -18 -220 -19 -362 -7 -603 170 -715 525 -88 274 -167 394 -289
435 -59 20 -165 15 -218 -10 -103 -49 -189 -177 -233 -347 -26 -100 -30 -144
-29 -324 1 -156 5 -194 39 -360 28 -139 139 -378 243 -525 241 -339 591 -542
997 -577 128 -11 406 -5 490 11 11 2 40 7 65 10 149 20 399 88 504 135 25 12
48 21 51 21 21 0 267 133 360 194 405 267 670 607 815 1048 33 100 74 270 86
358 4 30 8 62 10 70 26 175 26 620 -1 845 -79 654 -323 1126 -720 1395 -198
134 -446 217 -703 235 -37 3 -89 8 -117 10 -69 8 -127 13 -215 21 -41 3 -88 8
-105 9 -16 2 -68 6 -115 10 -146 11 -304 78 -379 160 -40 45 -77 116 -91 179
-11 50 -14 164 -6 204 41 188 105 303 250 448 223 221 450 334 706 350 118 8
206 -9 413 -77 233 -76 310 -93 412 -94 80 0 95 3 136 27 143 84 245 297 254
533 7 149 -12 218 -88 330 -36 54 -151 160 -232 215 -75 51 -311 173 -385 199
-19 7 -44 17 -55 21 -172 72 -385 100 -565 74z"/>
</g>
</svg>
